<svg width="26" height="22" viewBox="0 0 26 22" fill="none" xmlns="http://www.w3.org/2000/svg">
<g clip-path="url(#clip0_163_5)">
<path d="M12 13V19C12 19.8333 11.7083 20.5417 11.125 21.125C10.5417 21.7083 9.83333 22 9 22H3C2.16667 22 1.45833 21.7083 0.875 21.125C0.291667 20.5417 0 19.8333 0 19V8C0 6.91667 0.210938 5.88281 0.632812 4.89844C1.05469 3.91406 1.625 3.0625 2.34375 2.34375C3.0625 1.625 3.91406 1.05469 4.89844 0.632812C5.88281 0.210938 6.91667 0 8 0H9C9.27083 0 9.50521 0.0989583 9.70312 0.296875C9.90104 0.494792 10 0.729167 10 1V3C10 3.27083 9.90104 3.50521 9.70312 3.70312C9.50521 3.90104 9.27083 4 9 4H8C6.89583 4 5.95312 4.39062 5.17188 5.17188C4.39062 5.95312 4 6.89583 4 8V8.5C4 8.91667 4.14583 9.27083 4.4375 9.5625C4.72917 9.85417 5.08333 10 5.5 10H9C9.83333 10 10.5417 10.2917 11.125 10.875C11.7083 11.4583 12 12.1667 12 13ZM26 13V19C26 19.8333 25.7083 20.5417 25.125 21.125C24.5417 21.7083 23.8333 22 23 22H17C16.1667 22 15.4583 21.7083 14.875 21.125C14.2917 20.5417 14 19.8333 14 19V8C14 6.91667 14.2109 5.88281 14.6328 4.89844C15.0547 3.91406 15.625 3.0625 16.3438 2.34375C17.0625 1.625 17.9141 1.05469 18.8984 0.632812C19.8828 0.210938 20.9167 0 22 0H23C23.2708 0 23.5052 0.0989583 23.7031 0.296875C23.901 0.494792 24 0.729167 24 1V3C24 3.27083 23.901 3.50521 23.7031 3.70312C23.5052 3.90104 23.2708 4 23 4H22C20.8958 4 19.9531 4.39062 19.1719 5.17188C18.3906 5.95312 18 6.89583 18 8V8.5C18 8.91667 18.1458 9.27083 18.4375 9.5625C18.7292 9.85417 19.0833 10 19.5 10H23C23.8333 10 24.5417 10.2917 25.125 10.875C25.7083 11.4583 26 12.1667 26 13Z" fill="black"/>
</g>
<defs>
<clipPath id="clip0_163_5">
<rect width="26" height="22" fill="white"/>
</clipPath>
</defs>
</svg>
