<svg xmlns="http://www.w3.org/2000/svg" width="256" height="256" viewBox="0 0 100 100"><rect width="100" height="100" rx="20" fill="#2c2c2c"></rect><path d="M36.70 55.71L36.70 55.71L36.70 27.29L44.75 27.29L44.75 56.13Q44.75 59.70 43.56 62.81Q42.37 65.93 40.02 68.31Q37.68 70.69 34.25 72.02Q30.82 73.35 26.34 73.35L26.34 73.35Q22.70 73.35 19.38 72.37Q16.05 71.39 13.46 69.46Q10.87 67.54 9.29 64.67Q7.72 61.80 7.58 57.95L7.58 57.95L15.21 57.95Q15.91 62.01 18.95 64.11Q22 66.21 26.34 66.21L26.34 66.21Q29.98 66.21 32.26 64.84Q34.53 63.48 35.62 61.10Q36.70 58.72 36.70 55.71ZM52.66 57.53L52.66 57.53L60.64 57.53Q60.85 60.12 62.67 62.18Q64.49 64.25 67.47 65.40Q70.44 66.56 74.29 66.56L74.29 66.56Q77.72 66.56 79.96 65.72Q82.20 64.88 83.32 63.41Q84.44 61.94 84.44 59.84L84.44 59.84Q84.44 57.81 83.15 56.69Q81.85 55.57 79.12 54.80Q76.39 54.03 72.19 53.26L72.19 53.26Q68.69 52.56 65.47 51.51Q62.25 50.46 59.70 48.85Q57.14 47.24 55.67 44.93Q54.20 42.62 54.20 39.40L54.20 39.40Q54.20 35.69 56.27 32.75Q58.33 29.81 62.43 28.13Q66.52 26.45 72.47 26.45L72.47 26.45Q81.43 26.45 86.16 30.54Q90.88 34.64 90.74 41.71L90.74 41.71L83.04 41.71Q82.76 37.30 79.75 35.37Q76.74 33.45 72.12 33.45L72.12 33.45Q67.92 33.45 65.12 34.88Q62.32 36.32 62.32 39.61L62.32 39.61Q62.32 40.94 62.98 41.95Q63.65 42.97 65.22 43.77Q66.80 44.58 69.50 45.31Q72.19 46.05 76.18 46.82L76.18 46.82Q79.54 47.45 82.52 48.39Q85.49 49.34 87.70 50.84Q89.90 52.35 91.16 54.66Q92.42 56.97 92.42 60.33L92.42 60.33Q92.42 64.18 90.46 67.15Q88.50 70.13 84.44 71.84Q80.38 73.56 73.94 73.56L73.94 73.56Q69.04 73.56 65.44 72.40Q61.83 71.25 59.28 69.39Q56.72 67.54 55.18 65.37Q53.64 63.20 53.05 61.13Q52.45 59.07 52.66 57.53Z" fill="#fff"></path></svg>