<svg width="172" height="176" viewBox="0 0 172 176" fill="none" xmlns="http://www.w3.org/2000/svg">
<rect width="172" height="176" rx="26" transform="matrix(-1 0 0 1 172 0)" fill="black"/>
<path d="M156 59.5V30C156 23.3726 150.627 18 144 18H28C21.3726 18 16 23.3726 16 30V53V76C16 82.6274 21.3726 88 28 88H39M139 88H144C150.627 88 156 93.3726 156 100V146C156 152.627 150.627 158 144 158H28C21.3726 158 16 152.627 16 146V116" stroke="white" stroke-width="12" stroke-linecap="round"/>
<path d="M50 110.826C50 110.826 49.9596 113.547 53.0415 117.293C56.1234 121.04 61.4056 123 66.7282 123C72.0508 123 74.3319 119.957 76.9932 117.293C79.6545 114.63 121.352 55.3998 123 53" stroke="white" stroke-width="12" stroke-linecap="round"/>
</svg>
